<svg width="9" height="15" viewBox="0 0 9 15" fill="none" xmlns="http://www.w3.org/2000/svg">
<path d="M8.24927 0.003121L6.30413 0C4.11882 0 2.70659 1.44892 2.70659 3.69152V5.39356H0.750832C0.581831 5.39356 0.444977 5.53057 0.444977 5.69957V8.16563C0.444977 8.33463 0.581987 8.47149 0.750832 8.47149H2.70659V14.6941C2.70659 14.8631 2.84344 15 3.01244 15H5.56414C5.73314 15 5.87 14.863 5.87 14.6941V8.47149H8.15673C8.32573 8.47149 8.46259 8.33463 8.46259 8.16563L8.46352 5.69957C8.46352 5.61843 8.43122 5.54071 8.37395 5.48329C8.31668 5.42586 8.23866 5.39356 8.15751 5.39356H5.87V3.95072C5.87 3.25723 6.03525 2.90518 6.93862 2.90518L8.24896 2.90472C8.4178 2.90472 8.55466 2.7677 8.55466 2.59886V0.308979C8.55466 0.140289 8.41796 0.0034331 8.24927 0.003121Z" fill="black"/>
</svg>
