<svg width="10" height="12" viewBox="0 0 10 12" fill="none" xmlns="http://www.w3.org/2000/svg">
<path d="M4.99999 0C2.60362 0 0.654045 1.94958 0.654045 4.34592C0.654045 7.31986 4.54324 11.6858 4.70883 11.8702C4.86436 12.0434 5.13591 12.0431 5.29116 11.8702C5.45674 11.6858 9.34594 7.31986 9.34594 4.34592C9.34589 1.94958 7.39634 0 4.99999 0ZM4.99999 6.53248C3.79432 6.53248 2.81346 5.55159 2.81346 4.34592C2.81346 3.14025 3.79434 2.15939 4.99999 2.15939C6.20564 2.15939 7.1865 3.14027 7.1865 4.34595C7.1865 5.55162 6.20564 6.53248 4.99999 6.53248Z" fill="white"/>
</svg>
