<svg width="12" height="12" viewBox="0 0 12 12" fill="none" xmlns="http://www.w3.org/2000/svg">
<path d="M11.9743 9.29781C11.9404 9.19554 11.7245 9.04488 11.3267 8.84619C11.2189 8.78357 11.0653 8.69846 10.8667 8.59049C10.6678 8.48252 10.4873 8.38303 10.3255 8.2921C10.1633 8.20121 10.0114 8.11314 9.86946 8.02804C9.84678 8.01099 9.77576 7.96135 9.65645 7.87879C9.53701 7.79646 9.4363 7.73535 9.35376 7.6955C9.2714 7.65589 9.19038 7.63595 9.11083 7.63595C8.99722 7.63595 8.85531 7.71696 8.68492 7.87879C8.51453 8.04082 8.35823 8.21682 8.21626 8.40733C8.07426 8.59774 7.92366 8.77375 7.76474 8.93569C7.60557 9.09769 7.4748 9.17861 7.37265 9.17861C7.32136 9.17861 7.25742 9.16432 7.18079 9.13611C7.1042 9.10772 7.04593 9.08339 7.00593 9.06378C6.96629 9.04375 6.89826 9.00411 6.8016 8.94425C6.70476 8.88458 6.65091 8.8519 6.63957 8.84619C5.86121 8.41428 5.19365 7.91995 4.63678 7.36332C4.08009 6.80636 3.5857 6.13887 3.15391 5.36041C3.14824 5.34904 3.11549 5.29504 3.05588 5.1985C2.99618 5.10188 2.95639 5.03379 2.9365 4.99391C2.91662 4.95417 2.89247 4.89591 2.86412 4.81922C2.83576 4.74253 2.82152 4.67865 2.82152 4.62746C2.82152 4.52525 2.9025 4.3945 3.06445 4.23539C3.22636 4.07638 3.40254 3.92575 3.59281 3.78381C3.78322 3.64187 3.95923 3.48557 4.1212 3.31518C4.28311 3.1447 4.36406 3.00273 4.36406 2.88912C4.36406 2.80963 4.34418 2.72858 4.30445 2.64622C4.26469 2.56368 4.20362 2.46297 4.1212 2.34359C4.03875 2.22428 3.98905 2.15332 3.97197 2.13049C3.88684 1.98855 3.79887 1.83658 3.70785 1.67464C3.61684 1.51272 3.51749 1.33225 3.40949 1.13341C3.30158 0.934661 3.21642 0.781198 3.15385 0.673257C2.9551 0.275613 2.80456 0.0596122 2.70226 0.0256419C2.66247 0.00859706 2.60277 0 2.52331 0C2.36982 0 2.16958 0.0283583 1.92244 0.0852542C1.67521 0.14206 1.48068 0.201643 1.33862 0.26424C1.05453 0.383494 0.753419 0.730063 0.435209 1.30383C0.145446 1.8378 0.000579834 2.36631 0.000579834 2.88897C0.000579834 3.04225 0.0105202 3.19139 0.0304009 3.3364C0.0502816 3.48127 0.0858041 3.64465 0.136998 3.8265C0.188103 4.00829 0.229327 4.14333 0.260492 4.23127C0.291686 4.31928 0.349925 4.47692 0.435179 4.70426C0.520314 4.93155 0.571508 5.07068 0.588553 5.12182C0.78739 5.67866 1.02318 6.17576 1.29587 6.61329C1.74453 7.34051 2.3568 8.09207 3.13233 8.86766C3.90788 9.64318 4.65929 10.2554 5.38658 10.7043C5.82404 10.9769 6.32133 11.2127 6.87808 11.4117C6.92924 11.4286 7.06838 11.4797 7.29557 11.5651C7.52286 11.6503 7.68056 11.7086 7.76856 11.7398C7.85659 11.7711 7.99166 11.8124 8.17331 11.8636C8.35534 11.9147 8.51856 11.9503 8.66343 11.9703C8.80838 11.9899 8.95755 12 9.11086 12C9.63349 12 10.162 11.8551 10.6961 11.5653C11.2698 11.2473 11.6163 10.9461 11.7356 10.6618C11.7983 10.5199 11.8578 10.3253 11.9146 10.0781C11.9716 9.83095 11.9999 9.63074 11.9999 9.47727C12 9.39748 11.9915 9.33793 11.9743 9.29781Z" fill="white"/>
</svg>
